<svg width="462" height="166" viewBox="0 0 462 166" fill="none" xmlns="http://www.w3.org/2000/svg">
<mask id="mask0_61_3" style="mask-type:alpha" maskUnits="userSpaceOnUse" x="0" y="0" width="480" height="200">
<rect width="480" height="200" fill="white"/>
</mask>
<g mask="url(#mask0_61_3)">
<path d="M14.976 132.28C13.5253 132.28 12.3733 131.853 11.52 131C10.6667 130.061 10.24 128.781 10.24 127.16V56.76C10.24 51.9813 11.648 48.2267 14.464 45.496C17.3653 42.7653 21.376 41.4 26.496 41.4H66.176C69.504 41.4 71.168 42.7653 71.168 45.496C71.168 46.6907 70.7413 47.6293 69.888 48.312C69.0347 48.9947 67.7973 49.336 66.176 49.336H26.624C24.576 49.336 22.912 50.0187 21.632 51.384C20.4373 52.7493 19.84 54.5413 19.84 56.76V82.488H56.448C59.776 82.488 61.44 83.8533 61.44 86.584C61.44 87.864 60.9707 88.8453 60.032 89.528C59.1787 90.2107 57.984 90.552 56.448 90.552H19.84V127.16C19.84 128.781 19.4133 130.061 18.56 131C17.7067 131.853 16.512 132.28 14.976 132.28ZM88.372 53.432C86.4947 53.432 84.8733 52.8347 83.508 51.64C82.228 50.36 81.588 48.824 81.588 47.032C81.588 45.24 82.228 43.704 83.508 42.424C84.8733 41.144 86.4947 40.504 88.372 40.504C90.2493 40.504 91.8707 41.1867 93.236 42.552C94.6867 43.832 95.412 45.3253 95.412 47.032C95.412 48.7387 94.6867 50.232 93.236 51.512C91.8707 52.792 90.2493 53.432 88.372 53.432ZM88.372 132.28C86.9213 132.28 85.7693 131.853 84.916 131C84.148 130.061 83.764 128.781 83.764 127.16V72.12C83.764 70.4987 84.148 69.2613 84.916 68.408C85.7693 67.4693 86.9213 67 88.372 67C89.908 67 91.06 67.4693 91.828 68.408C92.6813 69.2613 93.108 70.4987 93.108 72.12V127.16C93.108 128.781 92.6813 130.061 91.828 131C91.06 131.853 89.908 132.28 88.372 132.28ZM156.212 118.328C157.151 119.096 157.62 119.992 157.62 121.016C157.62 121.869 157.236 122.893 156.468 124.088C154.676 126.563 152.201 128.568 149.044 130.104C145.887 131.555 142.644 132.28 139.316 132.28C133.684 132.28 129.247 130.616 126.004 127.288C122.761 123.96 121.14 119.395 121.14 113.592V76.088H114.228C110.815 76.088 109.108 74.7653 109.108 72.12C109.108 70.9253 109.535 69.9867 110.388 69.304C111.327 68.6213 112.607 68.28 114.228 68.28H121.14V46.392C121.14 44.7707 121.524 43.5333 122.292 42.68C123.145 41.7413 124.34 41.272 125.876 41.272C127.327 41.272 128.436 41.7413 129.204 42.68C130.057 43.5333 130.484 44.7707 130.484 46.392V68.28H147.892C149.428 68.28 150.623 68.6213 151.476 69.304C152.415 69.9013 152.884 70.84 152.884 72.12C152.884 74.7653 151.22 76.088 147.892 76.088H130.484V114.36C130.484 120.931 133.556 124.216 139.7 124.216C141.663 124.216 143.455 123.832 145.076 123.064C146.697 122.296 148.319 121.059 149.94 119.352C151.22 117.987 152.457 117.304 153.652 117.304C154.42 117.304 155.273 117.645 156.212 118.328Z" fill="#677BFF"/>
<path d="M177.351 132.28C175.9 132.28 174.748 131.853 173.895 131C173.042 130.061 172.615 128.781 172.615 127.16V56.76C172.615 51.9813 174.023 48.2267 176.839 45.496C179.74 42.7653 183.751 41.4 188.871 41.4H228.551C231.879 41.4 233.543 42.7653 233.543 45.496C233.543 46.6907 233.116 47.6293 232.263 48.312C231.41 48.9947 230.172 49.336 228.551 49.336H188.999C186.951 49.336 185.287 50.0187 184.007 51.384C182.812 52.7493 182.215 54.5413 182.215 56.76V82.488H218.823C222.151 82.488 223.815 83.8533 223.815 86.584C223.815 87.864 223.346 88.8453 222.407 89.528C221.554 90.2107 220.359 90.552 218.823 90.552H182.215V127.16C182.215 128.781 181.788 130.061 180.935 131C180.082 131.853 178.887 132.28 177.351 132.28ZM250.747 53.432C248.87 53.432 247.248 52.8347 245.883 51.64C244.603 50.36 243.963 48.824 243.963 47.032C243.963 45.24 244.603 43.704 245.883 42.424C247.248 41.144 248.87 40.504 250.747 40.504C252.624 40.504 254.246 41.1867 255.611 42.552C257.062 43.832 257.787 45.3253 257.787 47.032C257.787 48.7387 257.062 50.232 255.611 51.512C254.246 52.792 252.624 53.432 250.747 53.432ZM250.747 132.28C249.296 132.28 248.144 131.853 247.291 131C246.523 130.061 246.139 128.781 246.139 127.16V72.12C246.139 70.4987 246.523 69.2613 247.291 68.408C248.144 67.4693 249.296 67 250.747 67C252.283 67 253.435 67.4693 254.203 68.408C255.056 69.2613 255.483 70.4987 255.483 72.12V127.16C255.483 128.781 255.056 130.061 254.203 131C253.435 131.853 252.283 132.28 250.747 132.28ZM318.587 118.328C319.526 119.096 319.995 119.992 319.995 121.016C319.995 121.869 319.611 122.893 318.843 124.088C317.051 126.563 314.576 128.568 311.419 130.104C308.262 131.555 305.019 132.28 301.691 132.28C296.059 132.28 291.622 130.616 288.379 127.288C285.136 123.96 283.515 119.395 283.515 113.592V76.088H276.603C273.19 76.088 271.483 74.7653 271.483 72.12C271.483 70.9253 271.91 69.9867 272.763 69.304C273.702 68.6213 274.982 68.28 276.603 68.28H283.515V46.392C283.515 44.7707 283.899 43.5333 284.667 42.68C285.52 41.7413 286.715 41.272 288.251 41.272C289.702 41.272 290.811 41.7413 291.579 42.68C292.432 43.5333 292.859 44.7707 292.859 46.392V68.28H310.267C311.803 68.28 312.998 68.6213 313.851 69.304C314.79 69.9013 315.259 70.84 315.259 72.12C315.259 74.7653 313.595 76.088 310.267 76.088H292.859V114.36C292.859 120.931 295.931 124.216 302.075 124.216C304.038 124.216 305.83 123.832 307.451 123.064C309.072 122.296 310.694 121.059 312.315 119.352C313.595 117.987 314.832 117.304 316.027 117.304C316.795 117.304 317.648 117.645 318.587 118.328Z" fill="#2DB4E6"/>
<path d="M372.956 32.5291L446.44 106.014L346.058 132.911L372.956 32.5291Z" fill="#6075FF"/>
</g>
</svg>
